<?xml version="1.0" standalone="no"?>
<!DOCTYPE svg PUBLIC "-//W3C//DTD SVG 20010904//EN"
 "http://www.w3.org/TR/2001/REC-SVG-20010904/DTD/svg10.dtd">
<svg version="1.0" xmlns="http://www.w3.org/2000/svg"
 width="640.000000pt" height="1280.000000pt" viewBox="0 0 640.000000 1280.000000"
 preserveAspectRatio="xMidYMid meet">
<metadata>
Created by potrace 1.15, written by Peter Selinger 2001-2017
</metadata>
<g transform="translate(0.000000,1280.000000) scale(0.100000,-0.100000)"
fill="#000000" stroke="none">
<path d="M3095 12785 c-76 -20 -102 -32 -159 -70 -34 -23 -59 -32 -73 -29 -36
10 -161 -15 -226 -45 -34 -15 -85 -46 -113 -68 -61 -49 -137 -158 -164 -236
-23 -64 -42 -192 -34 -223 4 -15 -6 -27 -45 -52 -100 -65 -184 -188 -217 -322
-25 -97 -16 -254 19 -341 15 -36 27 -70 27 -76 0 -6 -20 -40 -45 -77 -150
-224 -119 -534 73 -723 l62 -62 -35 -16 c-89 -43 -174 -197 -175 -316 0 -20
-18 -80 -41 -135 -116 -284 -138 -420 -149 -904 l-8 -355 -39 -161 c-38 -152
-42 -163 -86 -217 -96 -118 -182 -345 -211 -558 -29 -206 -55 -664 -56 -960
l0 -116 -71 -109 c-87 -133 -119 -199 -159 -329 -34 -110 -40 -190 -21 -270
19 -79 43 -102 135 -125 105 -27 126 -25 199 11 104 52 150 111 132 170 -7 20
-11 21 -104 14 -89 -6 -98 -5 -124 15 -15 12 -27 30 -27 41 0 56 99 185 136
177 28 -5 46 -50 34 -83 -16 -43 -12 -90 10 -110 23 -21 47 -14 60 19 14 38
26 322 17 406 -7 61 -4 96 13 185 12 61 25 115 28 122 4 6 8 -59 9 -145 0 -86
5 -178 10 -203 7 -32 6 -68 -3 -120 -38 -215 13 -465 183 -899 162 -413 224
-618 258 -853 9 -62 38 -242 65 -402 76 -452 86 -631 45 -801 l-18 -71 37
-189 c67 -339 166 -774 356 -1559 127 -523 128 -531 77 -775 l-33 -155 36
-270 c21 -148 44 -286 52 -305 17 -41 67 -87 106 -98 36 -9 247 -9 294 1 52
11 95 51 110 100 6 23 18 50 26 59 18 22 12 90 -29 341 -39 238 -40 397 -3
587 24 123 26 150 21 300 -4 105 -15 217 -30 310 -48 281 -56 209 93 880 72
327 144 642 161 700 69 244 91 517 69 876 l-12 210 130 390 c72 214 158 488
192 609 34 121 68 231 76 245 77 131 104 216 139 431 22 136 24 177 19 315 -3
88 -14 239 -25 337 -19 170 -26 199 -138 595 -65 230 -125 442 -133 472 -14
53 -14 60 24 245 43 206 90 345 208 613 66 151 67 153 73 115 4 -21 7 -61 7
-90 0 -29 18 -131 41 -228 46 -199 81 -284 423 -1019 161 -344 176 -382 167
-410 -19 -61 -21 -104 -11 -179 9 -60 21 -94 55 -155 66 -118 105 -224 112
-303 8 -91 -2 -103 -74 -95 -48 6 -54 4 -69 -19 -18 -28 -12 -94 13 -131 15
-24 97 -48 198 -59 55 -6 65 -4 131 29 39 20 92 54 118 77 l46 41 0 102 c0
143 -12 193 -79 336 -103 217 -176 415 -199 535 -12 61 -61 322 -111 580 l-90
470 -132 359 -131 359 12 91 c6 50 14 197 17 326 6 261 -5 382 -52 579 -24
100 -26 118 -16 175 27 156 -6 295 -95 391 l-36 39 17 51 c59 182 33 373 -71
517 l-36 51 31 66 c41 90 53 150 53 256 0 154 -61 298 -174 406 l-50 48 12 73
c42 245 -82 493 -297 595 -70 34 -87 38 -178 42 -97 3 -101 5 -140 38 -109 94
-285 135 -420 98z m-754 -4222 c21 -84 43 -191 48 -238 15 -128 20 -118 -225
-470 -84 -121 -182 -270 -219 -330 -36 -60 -68 -112 -71 -114 -5 -6 18 56 106
284 143 366 130 322 151 530 18 174 25 205 76 370 30 99 58 184 61 189 8 14
28 -47 73 -221z"/>
</g>
</svg>
